<svg width="50" height="50" viewBox="0 0 50 50" fill="none" xmlns="http://www.w3.org/2000/svg">
<circle cx="25" cy="25" r="25" fill="url(#paint0_linear_152_187)"/>
<path d="M25.001 22C24.2053 22 23.4423 22.3161 22.8797 22.8787C22.317 23.4413 22.001 24.2044 22.001 25C22.001 25.7956 22.317 26.5587 22.8797 27.1213C23.4423 27.6839 24.2053 28 25.001 28C25.7966 28 26.5597 27.6839 27.1223 27.1213C27.6849 26.5587 28.001 25.7956 28.001 25C28.001 24.2044 27.6849 23.4413 27.1223 22.8787C26.5597 22.3161 25.7966 22 25.001 22ZM25.001 20C26.3271 20 27.5988 20.5268 28.5365 21.4645C29.4742 22.4021 30.001 23.6739 30.001 25C30.001 26.3261 29.4742 27.5979 28.5365 28.5355C27.5988 29.4732 26.3271 30 25.001 30C23.6749 30 22.4031 29.4732 21.4654 28.5355C20.5278 27.5979 20.001 26.3261 20.001 25C20.001 23.6739 20.5278 22.4021 21.4654 21.4645C22.4031 20.5268 23.6749 20 25.001 20ZM31.501 19.75C31.501 20.0815 31.3693 20.3995 31.1349 20.6339C30.9004 20.8683 30.5825 21 30.251 21C29.9195 21 29.6015 20.8683 29.3671 20.6339C29.1327 20.3995 29.001 20.0815 29.001 19.75C29.001 19.4185 29.1327 19.1005 29.3671 18.8661C29.6015 18.6317 29.9195 18.5 30.251 18.5C30.5825 18.5 30.9004 18.6317 31.1349 18.8661C31.3693 19.1005 31.501 19.4185 31.501 19.75ZM25.001 17C22.527 17 22.123 17.007 20.972 17.058C20.188 17.095 19.662 17.2 19.174 17.39C18.7656 17.5399 18.3964 17.7803 18.094 18.093C17.781 18.3954 17.5403 18.7646 17.39 19.173C17.2 19.663 17.095 20.188 17.059 20.971C17.007 22.075 17 22.461 17 25C17 27.475 17.007 27.878 17.058 29.029C17.095 29.812 17.2 30.339 17.389 30.826C17.559 31.261 17.759 31.574 18.091 31.906C18.428 32.242 18.741 32.443 19.171 32.609C19.665 32.8 20.191 32.906 20.971 32.942C22.075 32.994 22.461 33 25 33C27.475 33 27.878 32.993 29.029 32.942C29.811 32.905 30.337 32.8 30.826 32.611C31.234 32.4603 31.603 32.2201 31.906 31.908C32.243 31.572 32.444 31.259 32.61 30.828C32.8 30.336 32.906 29.81 32.942 29.028C32.994 27.925 33 27.538 33 25C33 22.526 32.993 22.122 32.942 20.971C32.905 20.189 32.799 19.661 32.61 19.173C32.4592 18.765 32.219 18.396 31.907 18.093C31.6047 17.7798 31.2355 17.5392 30.827 17.389C30.337 17.199 29.811 17.094 29.029 17.058C27.926 17.006 27.541 17 25.001 17ZM25.001 15C27.718 15 28.057 15.01 29.124 15.06C30.188 15.11 30.914 15.277 31.551 15.525C32.211 15.779 32.767 16.123 33.323 16.678C33.8315 17.1779 34.2249 17.7826 34.476 18.45C34.723 19.087 34.891 19.813 34.941 20.878C34.988 21.944 35.001 22.283 35.001 25C35.001 27.717 34.991 28.056 34.941 29.122C34.891 30.187 34.723 30.912 34.476 31.55C34.2256 32.2178 33.8321 32.8226 33.323 33.322C32.8229 33.8303 32.2183 34.2238 31.551 34.475C30.914 34.722 30.188 34.89 29.124 34.94C28.057 34.987 27.718 35 25.001 35C22.284 35 21.945 34.99 20.878 34.94C19.814 34.89 19.089 34.722 18.451 34.475C17.7833 34.2245 17.1785 33.8309 16.679 33.322C16.1704 32.8222 15.7769 32.2175 15.526 31.55C15.278 30.913 15.111 30.187 15.061 29.122C15.013 28.056 15.001 27.717 15.001 25C15.001 22.283 15.011 21.944 15.061 20.878C15.111 19.812 15.278 19.088 15.526 18.45C15.7762 17.7822 16.1698 17.1773 16.679 16.678C17.1786 16.1692 17.7834 15.7757 18.451 15.525C19.088 15.277 19.813 15.11 20.878 15.06C21.945 15.013 22.284 15 25.001 15Z" fill="#F8F8F8"/>
<defs>
<linearGradient id="paint0_linear_152_187" x1="25" y1="0" x2="25" y2="50" gradientUnits="userSpaceOnUse">
<stop stop-color="#A23283"/>
<stop offset="0.484375" stop-color="#CD328C"/>
<stop offset="1" stop-color="#EC5C2B"/>
</linearGradient>
</defs>
</svg>
