<svg width="50" height="50" viewBox="0 0 50 50" fill="none" xmlns="http://www.w3.org/2000/svg">
<circle cx="25" cy="25" r="25" fill="url(#paint0_linear_152_192)"/>
<path d="M35.2119 18.656C34.4488 18.9936 33.6395 19.2154 32.8109 19.314C33.6839 18.7911 34.3372 17.9687 34.6489 17C33.8289 17.488 32.9299 17.83 31.9939 18.015C31.3645 17.3416 30.5302 16.895 29.6208 16.7446C28.7114 16.5942 27.7778 16.7485 26.9651 17.1835C26.1525 17.6184 25.5063 18.3097 25.127 19.1498C24.7477 19.9899 24.6566 20.9318 24.8679 21.829C23.2048 21.7458 21.5778 21.3137 20.0926 20.5609C18.6074 19.808 17.2971 18.7512 16.2469 17.459C15.8752 18.0975 15.6798 18.8232 15.6809 19.562C15.6809 21.012 16.4199 22.293 17.5409 23.043C16.8769 23.0221 16.2275 22.8427 15.6469 22.52V22.571C15.6469 23.5369 15.9809 24.473 16.5924 25.2207C17.2039 25.9683 18.0552 26.4814 19.0019 26.673C18.3855 26.8402 17.7392 26.8648 17.1119 26.745C17.3788 27.5764 17.8991 28.3035 18.5999 28.8244C19.3007 29.3453 20.1468 29.634 21.0199 29.65C20.1522 30.3315 19.1588 30.8352 18.0963 31.1324C17.0338 31.4296 15.9232 31.5144 14.8279 31.382C16.7396 32.6114 18.965 33.2641 21.2379 33.262C28.9319 33.262 33.1379 26.889 33.1379 21.362C33.1379 21.182 33.1339 21 33.1259 20.821C33.9443 20.2294 34.6507 19.4956 35.2119 18.656Z" fill="#F8F8F8"/>
<defs>
<linearGradient id="paint0_linear_152_192" x1="25" y1="0" x2="25" y2="50" gradientUnits="userSpaceOnUse">
<stop stop-color="#A23283"/>
<stop offset="0.484375" stop-color="#CD328C"/>
<stop offset="1" stop-color="#EC5C2B"/>
</linearGradient>
</defs>
</svg>
